<?xml version="1.0" standalone="no"?>
<!DOCTYPE svg PUBLIC "-//W3C//DTD SVG 20010904//EN"
 "http://www.w3.org/TR/2001/REC-SVG-20010904/DTD/svg10.dtd">
<svg version="1.0" xmlns="http://www.w3.org/2000/svg"
 width="1253.000000pt" height="1253.000000pt" viewBox="0 0 1253.000000 1253.000000"
 preserveAspectRatio="xMidYMid meet">
<metadata>
Created by potrace 1.11, written by Peter Selinger 2001-2013
</metadata>
<g transform="translate(0.000000,1253.000000) scale(0.100000,-0.100000)"
fill="#000000" stroke="none">
<path d="M5785 12099 c-167 -19 -407 -94 -541 -167 -45 -24 -113 -70 -152
-101 -38 -31 -99 -78 -133 -106 -240 -188 -358 -310 -466 -480 -103 -162 -155
-261 -199 -380 -66 -180 -184 -549 -195 -610 -6 -33 -17 -83 -25 -111 -31
-111 -54 -333 -65 -619 -10 -272 -9 -300 10 -445 18 -135 40 -328 82 -720 10
-94 29 -206 74 -440 8 -41 17 -98 20 -127 8 -61 135 -447 193 -586 23 -53 60
-149 82 -213 48 -136 143 -340 204 -439 24 -38 66 -113 93 -166 59 -112 64
-120 159 -264 75 -114 153 -250 213 -370 19 -38 73 -129 121 -200 104 -157
136 -213 127 -221 -11 -11 -45 24 -104 106 -29 41 -76 107 -104 145 -89 122
-273 442 -389 675 -62 124 -126 244 -142 267 -41 60 -227 418 -248 478 -10 28
-36 97 -59 155 -83 207 -191 568 -190 631 1 25 -1 54 -5 65 -7 23 -73 335 -87
409 -5 28 -20 138 -34 245 -14 107 -38 263 -54 345 -16 83 -37 218 -47 300
-17 144 -34 210 -34 132 0 -21 -7 -52 -16 -69 -33 -63 -55 -146 -76 -278 -19
-124 -20 -147 -9 -280 14 -167 39 -358 51 -380 4 -8 10 -33 13 -54 6 -41 91
-327 153 -516 39 -119 39 -120 21 -120 -16 0 -108 225 -159 387 -21 69 -39
128 -39 132 -1 3 -5 -12 -9 -34 -4 -22 -23 -115 -43 -207 -40 -180 -45 -243
-22 -274 11 -14 14 -15 15 -4 0 27 126 -205 268 -495 26 -53 136 -252 221
-398 28 -49 51 -95 51 -103 0 -25 -25 -15 -44 19 -11 17 -44 70 -76 117 -70
105 -167 269 -301 508 -22 39 -43 72 -46 72 -3 0 -3 -71 0 -157 4 -132 10
-177 35 -273 16 -63 28 -119 25 -124 -9 -14 -25 22 -49 113 -25 96 -29 89 -13
-22 9 -58 25 -100 79 -208 123 -239 201 -401 197 -405 -4 -4 -65 85 -142 206
-27 43 -69 110 -93 147 l-43 68 5 -155 c8 -234 15 -265 91 -430 141 -308 246
-508 286 -548 73 -74 39 -97 -52 -36 l-54 36 -120 -5 c-66 -3 -136 -8 -155
-11 -19 -3 -66 -10 -105 -15 -38 -5 -88 -14 -110 -20 -97 -24 -197 -52 -285
-81 -52 -17 -104 -32 -115 -35 -128 -28 -322 -94 -366 -126 -15 -10 -31 -19
-37 -19 -23 0 -103 -75 -129 -120 -15 -27 -31 -50 -35 -50 -5 0 -8 -5 -8 -12
0 -26 -115 -246 -153 -293 -91 -111 -223 -371 -287 -564 -27 -82 -70 -193 -95
-246 -25 -53 -50 -118 -56 -143 -6 -26 -24 -88 -40 -138 -15 -51 -38 -143 -49
-205 -12 -63 -33 -156 -46 -206 -13 -51 -30 -134 -39 -185 -9 -51 -25 -126
-36 -165 -11 -40 -23 -111 -26 -158 -5 -70 -10 -89 -26 -100 -18 -13 -14 -18
73 -102 51 -48 138 -121 194 -161 55 -41 133 -99 171 -131 39 -31 115 -90 170
-131 55 -41 143 -108 195 -151 52 -42 140 -105 195 -139 55 -35 109 -71 120
-81 23 -19 166 -106 191 -116 14 -5 16 4 13 93 -2 54 0 105 5 112 4 7 12 61
17 120 5 59 13 132 18 162 5 30 13 87 16 125 4 39 20 135 36 215 17 80 35 174
41 210 6 36 24 110 40 165 16 55 38 141 49 190 11 50 33 133 49 185 16 52 41
138 55 190 14 52 46 156 71 230 25 74 61 187 79 250 29 100 82 237 170 441 14
31 25 63 25 71 0 8 9 39 19 69 10 30 40 115 66 189 25 74 57 154 69 177 13 23
34 72 46 110 12 37 32 91 45 118 52 112 73 162 89 210 17 50 69 117 117 148
23 15 27 15 47 1 32 -22 27 -44 -22 -92 -30 -29 -51 -61 -62 -94 -9 -28 -34
-89 -56 -137 -22 -47 -55 -125 -73 -172 -19 -48 -44 -109 -56 -135 -30 -67
-121 -323 -152 -429 -9 -27 -41 -111 -72 -185 -32 -74 -63 -153 -71 -175 -8
-22 -18 -47 -23 -55 -4 -8 -14 -40 -21 -70 -13 -57 -67 -218 -94 -282 -9 -21
-21 -61 -27 -90 -12 -57 -16 -73 -77 -273 -56 -186 -123 -451 -157 -620 -8
-38 -26 -126 -40 -195 -14 -68 -30 -165 -35 -215 -32 -333 -39 -421 -42 -510
l-3 -100 120 -59 c66 -33 167 -79 225 -102 58 -23 130 -54 160 -69 50 -25 160
-67 345 -131 63 -22 179 -47 390 -85 45 -8 257 -15 600 -20 292 -4 555 -12
585 -17 363 -61 474 -100 734 -255 44 -26 98 -52 120 -58 23 -6 64 -19 91 -28
69 -25 175 -52 265 -67 41 -7 90 -18 109 -23 19 -6 36 -9 38 -7 2 2 7 25 12
52 9 59 -10 109 -63 168 -29 32 -39 56 -60 145 -14 59 -33 153 -41 208 -8 55
-19 123 -25 151 -19 102 -40 284 -60 522 -5 63 -12 138 -15 165 -3 28 -10 111
-16 185 -18 231 -17 228 -47 232 -17 2 -35 15 -49 37 -30 45 -29 57 3 32 15
-12 37 -21 51 -21 22 0 24 4 23 48 -1 77 19 512 24 520 3 5 6 142 7 305 l2
297 -38 55 c-24 34 -41 72 -45 102 -7 44 -5 49 22 75 17 15 41 28 55 28 l25 0
-27 -47 c-26 -43 -27 -49 -15 -82 19 -53 28 -62 50 -48 15 9 23 8 40 -8 11
-10 21 -16 23 -14 24 36 29 62 20 94 -13 43 1 46 22 5 23 -45 20 -117 -8 -150
-21 -24 -25 -43 -31 -141 -3 -63 -12 -199 -18 -304 -14 -229 -14 -315 1 -825
7 -274 17 -441 30 -545 22 -170 38 -314 46 -428 3 -43 9 -87 14 -99 12 -34 22
120 15 242 l-6 105 34 15 c69 31 124 198 133 410 3 63 12 162 20 220 8 58 19
146 25 195 13 108 32 210 99 540 25 122 33 151 64 240 13 39 26 96 29 128 l5
57 -25 -35 c-51 -71 -75 -29 -39 66 14 35 61 128 105 206 45 77 80 149 80 160
-1 16 68 153 77 153 2 0 -3 -21 -11 -47 -44 -144 -66 -318 -99 -778 -29 -404
-49 -520 -136 -795 -22 -69 -45 -143 -52 -165 -6 -22 -23 -67 -38 -100 -41
-91 -85 -238 -104 -345 -38 -214 -49 -261 -96 -385 -27 -71 -53 -137 -58 -146
-19 -33 47 -363 85 -424 15 -24 34 -135 34 -197 l0 -45 53 -8 c28 -4 77 -12
107 -17 31 -6 301 -12 618 -15 518 -4 574 -2 710 16 122 16 170 28 285 70 76
28 193 77 260 110 243 119 404 184 526 212 157 37 255 70 381 129 193 90 343
157 368 165 25 7 24 21 -8 85 -10 19 -23 67 -29 105 -6 39 -18 99 -25 135 -40
186 -56 326 -56 493 0 69 -8 169 -20 245 -12 70 -23 152 -25 182 -5 70 -29
224 -49 315 -9 39 -25 122 -36 185 -11 63 -26 144 -34 180 -8 36 -16 79 -19
95 -11 68 -29 162 -37 195 -14 53 -60 268 -64 299 -8 59 -20 108 -37 145 l-17
39 -82 -1 c-45 0 -103 -8 -130 -17 -27 -9 -62 -15 -77 -13 -27 3 -28 2 -31
-51 -2 -30 4 -82 12 -115 8 -34 25 -135 36 -226 12 -91 30 -214 41 -275 24
-138 36 -209 50 -310 6 -44 19 -116 29 -160 10 -44 28 -138 40 -210 11 -71 30
-177 41 -235 34 -175 38 -200 53 -335 25 -208 74 -556 86 -605 22 -89 29 -136
29 -202 1 -75 -5 -98 -25 -98 -22 0 -34 35 -35 102 0 69 -9 123 -32 208 -8 30
-20 100 -26 155 -14 129 -60 473 -90 685 -5 30 -15 87 -23 125 -9 39 -21 104
-27 145 -7 41 -24 131 -37 200 -36 179 -94 540 -124 765 -6 44 -18 130 -27
190 -20 127 -24 220 -13 288 4 31 2 66 -7 100 -7 28 -22 112 -33 187 -20 130
-61 366 -81 460 -6 25 -18 87 -29 138 -10 51 -22 97 -25 102 -15 24 -32 119
-29 162 1 26 -2 50 -7 54 -6 3 -15 17 -20 31 -12 31 3 53 36 53 13 0 45 6 71
14 157 46 291 59 314 31 9 -11 11 -40 8 -98 -4 -63 -1 -94 12 -132 36 -102 94
-326 109 -420 25 -163 30 -204 36 -285 6 -88 20 -177 36 -220 5 -14 22 -99 38
-190 16 -91 36 -194 45 -230 43 -186 120 -548 146 -690 10 -58 28 -150 40
-205 21 -100 32 -171 49 -320 5 -44 14 -102 21 -130 6 -27 15 -149 20 -270 8
-217 23 -333 70 -552 11 -50 20 -103 20 -117 0 -14 11 -51 25 -82 14 -31 23
-60 20 -64 -8 -13 39 3 145 48 284 120 420 206 616 391 38 36 107 99 152 139
104 93 224 236 260 310 16 31 39 95 52 142 12 47 33 121 45 165 55 191 78 283
90 364 7 47 23 139 34 205 26 148 26 183 0 309 -26 130 -62 222 -141 358 -54
94 -80 126 -178 222 -245 239 -288 289 -372 434 -26 46 -74 116 -106 155 -131
161 -174 216 -208 267 -70 103 -211 243 -301 298 -32 20 -73 45 -91 56 -39 23
-130 47 -184 47 l-37 0 11 -32 c7 -18 24 -55 40 -81 15 -26 28 -54 28 -62 0
-8 14 -52 31 -97 30 -82 50 -186 140 -713 6 -33 14 -78 19 -100 5 -22 14 -83
20 -135 6 -52 18 -135 25 -185 8 -49 17 -112 20 -140 6 -51 69 -435 107 -650
12 -66 25 -151 29 -190 4 -38 29 -191 54 -340 64 -368 62 -355 75 -490 20
-225 28 -294 39 -327 22 -70 18 -129 -10 -146 -18 -12 -24 -11 -37 2 -19 19
-50 184 -51 267 -1 30 -5 59 -10 65 -5 5 -14 68 -20 139 -6 72 -22 193 -36
270 -13 77 -38 217 -54 310 -16 94 -35 213 -41 265 -6 52 -15 115 -21 139 -5
25 -18 99 -29 166 -10 66 -32 206 -49 310 -34 205 -56 358 -66 445 -4 30 -20
132 -35 225 -36 215 -36 214 -54 315 -8 47 -26 153 -40 236 -15 91 -37 181
-56 229 -16 44 -30 84 -30 88 0 5 -18 49 -40 98 -22 49 -45 119 -52 155 -12
63 -15 68 -48 82 -19 8 -58 25 -86 38 -28 13 -56 24 -63 24 -6 0 -73 20 -148
46 -75 25 -173 52 -217 60 -45 9 -100 26 -123 40 -23 13 -64 27 -90 30 -26 3
-65 12 -86 20 -20 8 -51 14 -67 14 -16 0 -39 4 -52 9 -102 40 -196 64 -230 57
-35 -6 -75 -47 -64 -65 11 -17 76 -326 111 -520 32 -183 48 -292 105 -726 10
-77 30 -189 43 -250 14 -60 28 -137 32 -170 6 -55 22 -130 60 -290 8 -33 19
-94 25 -135 6 -41 17 -102 25 -135 8 -33 19 -96 24 -140 5 -44 16 -123 25
-175 35 -215 116 -812 141 -1035 8 -77 22 -171 31 -210 8 -38 24 -115 35 -170
11 -55 29 -135 40 -178 10 -43 19 -88 19 -101 0 -13 6 -46 14 -72 22 -76 38
-177 31 -196 -8 -20 -36 -31 -58 -22 -20 7 -37 63 -37 120 0 23 -7 58 -15 78
-9 21 -18 56 -20 79 -2 23 -11 71 -19 107 -8 36 -22 99 -30 140 -9 41 -27 127
-41 191 -14 64 -25 136 -25 159 0 23 -9 104 -20 179 -10 75 -31 226 -45 336
-14 110 -30 225 -35 255 -6 30 -19 126 -30 214 -11 87 -22 162 -25 166 -3 5
-12 55 -20 112 -20 147 -61 366 -90 485 -13 56 -32 151 -40 210 -9 59 -22 131
-30 158 -8 28 -23 118 -34 200 -12 83 -28 188 -36 235 -8 47 -24 162 -35 255
-11 94 -27 206 -36 250 -8 44 -22 116 -30 160 -9 44 -22 109 -31 145 -8 36
-21 94 -29 130 -8 36 -16 70 -19 77 -3 8 -30 -4 -77 -36 -99 -65 -178 -111
-178 -105 0 3 50 59 110 125 60 66 110 125 110 131 0 6 8 20 17 30 9 10 22 33
29 51 105 272 117 330 111 497 -3 74 -13 180 -21 235 -16 103 -33 172 -36 145
0 -8 -7 -28 -15 -45 -13 -27 -14 -19 -8 92 3 72 1 148 -5 185 -6 35 -21 144
-33 243 -36 304 -108 605 -146 620 -38 14 -57 -30 -108 -246 -14 -63 -35 -139
-46 -169 -10 -30 -26 -88 -35 -127 -14 -67 -28 -93 -41 -80 -3 3 -1 21 5 39 5
18 20 78 32 133 22 102 114 469 157 630 22 80 24 103 19 215 -9 201 -62 620
-82 639 -2 2 -5 -20 -5 -50 l-1 -54 -10 55 c-8 39 -7 68 1 98 23 86 13 277
-25 497 -23 136 -46 235 -109 460 -18 67 -25 115 -25 186 0 69 -7 124 -24 190
-13 52 -34 141 -46 199 -25 122 -73 282 -104 354 -13 28 -36 85 -52 126 -16
41 -44 100 -62 130 -18 30 -46 89 -64 131 -42 102 -116 212 -148 219 -15 3
-37 23 -55 52 -19 29 -40 49 -56 53 -14 3 -46 26 -70 51 -73 76 -277 223 -379
274 -25 12 -52 28 -60 35 -14 11 -282 129 -400 176 -126 50 -351 111 -470 128
-265 39 -462 53 -565 40z m109 -186 c3 -49 9 -100 12 -115 7 -29 10 -27 -75
-44 -17 -4 -21 -8 -13 -16 8 -8 15 -8 24 -1 7 6 25 13 41 17 20 5 27 3 27 -8
0 -15 -49 -35 -85 -36 -51 0 -55 -3 -55 -38 0 -27 -10 -45 -51 -90 -27 -30
-62 -71 -77 -91 -14 -20 -39 -51 -56 -68 l-30 -33 35 -32 c19 -18 49 -58 67
-88 17 -31 42 -66 56 -80 l26 -24 30 29 c16 16 31 27 33 24 2 -2 9 -49 15
-104 6 -55 18 -152 27 -215 16 -124 18 -235 4 -261 -4 -9 -5 -29 0 -45 8 -28
9 -29 64 -26 l57 4 2 -71 c0 -39 1 -76 2 -83 1 -11 -15 -14 -264 -48 -47 -7
-110 -18 -140 -25 -30 -7 -80 -16 -110 -19 -30 -3 -100 -17 -155 -31 -55 -14
-118 -28 -140 -32 -63 -9 -198 -61 -269 -104 -36 -21 -67 -39 -70 -39 -24 0
-342 -167 -371 -194 -48 -46 -68 -51 -105 -30 -49 29 -55 65 -52 290 l2 202
40 96 c22 53 40 103 40 111 0 28 -20 15 -49 -31 l-29 -45 4 103 c3 57 10 132
15 168 12 72 64 204 115 293 39 66 136 199 141 193 2 -2 -9 -46 -24 -97 l-28
-94 1 -345 c1 -327 2 -349 23 -420 13 -41 24 -84 25 -95 1 -11 8 -30 14 -42 7
-12 12 -30 12 -40 0 -11 6 -27 13 -37 11 -16 17 -17 36 -7 15 9 19 16 13 24
-5 7 -26 77 -46 157 l-36 146 0 266 c0 214 4 294 20 402 38 259 48 283 150
362 41 32 107 84 145 117 157 131 318 224 550 320 133 54 313 101 411 106 l31
1 7 -87z m106 -22 l0 -109 -26 -5 c-33 -6 -42 18 -51 134 l-6 89 42 0 41 0 0
-109z m263 78 c50 -11 119 -25 152 -30 33 -6 92 -21 130 -33 39 -13 95 -29
125 -36 30 -7 87 -23 125 -37 39 -13 115 -33 170 -44 103 -21 134 -36 256
-124 76 -55 129 -103 162 -150 15 -22 44 -58 64 -80 28 -32 32 -34 17 -10 -35
57 -74 136 -74 151 0 28 109 -39 263 -164 46 -38 80 -76 107 -122 67 -112 84
-164 165 -505 8 -33 17 -96 20 -140 l6 -80 -31 55 c-17 30 -50 90 -72 133 -42
76 -66 100 -54 52 8 -31 118 -270 147 -320 18 -30 23 -61 31 -208 5 -95 12
-201 16 -237 4 -36 6 -73 4 -82 -5 -27 -44 -22 -119 16 -38 19 -85 40 -105 47
l-38 13 0 179 c0 165 -1 178 -17 175 -16 -3 -18 -20 -21 -166 -2 -154 -4 -162
-22 -162 -11 0 -20 -7 -20 -15 0 -22 -19 -19 -86 14 -60 29 -293 111 -315 111
-7 0 -42 13 -78 29 -90 40 -182 66 -341 96 -74 14 -191 40 -260 57 -269 65
-344 79 -356 63 -16 -21 -100 -20 -108 1 -3 9 -6 48 -6 88 l0 73 72 7 c39 3
73 8 74 9 9 10 -17 100 -31 111 -17 12 -19 37 -26 257 -4 134 -10 264 -14 289
-4 25 -18 113 -31 196 -13 83 -24 165 -24 182 0 18 -4 32 -9 32 -6 0 -8 -21
-5 -47 5 -56 -4 -93 -17 -72 -5 8 -6 21 -3 31 2 9 0 19 -6 23 -19 11 -10 56
17 90 24 30 28 32 40 17 11 -15 13 -10 11 33 l-3 50 -56 -1 -57 -1 -6 36 c-3
20 -6 69 -6 110 l0 74 75 -7 c42 -4 117 -16 168 -27z m-141 -218 c-7 -18 -47
-71 -54 -71 -5 0 -7 41 -2 67 4 21 28 33 51 25 7 -2 9 -11 5 -21z m-62 8 c0
-5 -12 -15 -26 -21 -20 -9 -27 -9 -33 1 -7 10 -13 10 -29 2 -11 -6 -23 -11
-26 -11 -10 0 -6 28 4 32 24 7 110 5 110 -3z m-226 -87 c3 -5 -25 -40 -62 -78
-115 -119 -162 -184 -155 -212 5 -22 4 -23 -16 -13 -11 7 -21 15 -21 19 0 12
105 142 160 198 27 28 50 58 50 67 0 21 34 35 44 19z m277 -195 c-8 -8 -11 -4
-11 14 0 33 14 47 18 19 2 -12 -1 -27 -7 -33z m17 -54 c-3 -21 -9 -47 -13 -58
-8 -17 -7 -18 7 -7 13 11 16 9 20 -11 5 -24 -26 -95 -35 -80 -9 14 -6 145 3
169 14 36 23 29 18 -13z m-258 -103 c0 -10 -8 -27 -17 -36 -17 -17 -17 -18 0
-11 14 5 17 1 17 -29 0 -31 -18 -64 -34 -64 -9 0 -12 35 -5 57 7 18 5 21 -9
16 -9 -3 -31 -19 -49 -36 -28 -26 -53 -30 -53 -8 0 14 134 140 142 135 4 -3 8
-14 8 -24z m269 -96 c-7 -13 -16 -24 -21 -24 -13 0 -9 26 10 59 15 28 17 29
20 9 2 -11 -2 -32 -9 -44z m-419 14 c0 -13 -23 -5 -28 10 -2 7 2 10 12 6 9 -3
16 -11 16 -16z m440 -50 c0 -25 -39 -83 -40 -59 0 22 23 81 32 81 4 0 8 -10 8
-22z m-280 -53 c-1 -28 -19 -65 -33 -65 -3 0 -9 15 -12 34 -5 24 -2 42 11 61
20 31 34 19 34 -30z m275 -62 c-19 -38 -19 -38 -23 -11 -4 35 16 74 31 59 8
-8 6 -21 -8 -48z m-279 -49 c-3 -8 -10 -14 -16 -14 -14 0 -13 27 2 53 l13 22
3 -23 c2 -13 1 -30 -2 -38z m290 -40 c-4 -18 -11 -34 -16 -34 -14 0 -12 47 2
73 15 28 22 8 14 -39z m-288 -25 c-18 -12 -22 5 -6 33 l13 23 3 -24 c2 -13 -2
-27 -10 -32z m22 -37 c0 -9 -7 -25 -14 -35 -20 -26 -31 -3 -16 33 13 31 30 32
30 2z m261 -55 c-8 -8 -11 -2 -11 19 0 40 14 54 18 19 2 -15 -1 -32 -7 -38z
m-275 -55 c-15 -15 -16 -15 -16 0 0 10 6 30 13 45 l12 28 3 -29 c2 -17 -3 -35
-12 -44z m284 -23 c0 -24 -4 -38 -10 -34 -17 10 -11 75 7 75 2 0 3 -18 3 -41z
m-260 -13 c0 -22 -17 -46 -32 -46 -11 0 -10 25 3 54 14 29 29 25 29 -8z m2
-70 c4 -22 -11 -56 -26 -56 -8 0 -8 65 1 73 12 13 21 7 25 -17z m263 -25 c-9
-29 -23 -17 -17 14 3 17 8 23 14 17 6 -6 7 -20 3 -31z m35 -30 c0 -16 6 -32
13 -34 6 -3 3 -6 -8 -6 -11 -1 -31 -4 -45 -7 l-25 -6 25 22 c14 13 24 31 22
41 -2 11 2 19 7 19 6 0 11 -13 11 -29z m-294 -15 c-3 -14 -1 -28 4 -31 16 -10
1 -25 -26 -25 -31 0 -32 25 -2 57 27 29 32 29 24 -1z m211 -32 c-3 -3 -12 -4
-19 -1 -8 3 -5 6 6 6 11 1 17 -2 13 -5z m-55 -34 c2 -5 2 -46 0 -90 -4 -81 -4
-81 -30 -78 -29 3 -35 19 -45 116 l-7 62 39 0 c22 0 41 -4 43 -10z m2108 -110
c0 -9 6 -24 14 -35 16 -24 42 -137 51 -225 12 -128 14 -152 9 -148 -8 9 -47
152 -54 203 -4 28 -15 82 -23 120 -8 39 -18 90 -21 115 l-6 45 15 -30 c8 -16
14 -37 15 -45z m-1890 -70 c20 -6 21 -8 5 -8 -11 0 -31 4 -45 8 -20 6 -21 8
-5 8 11 0 31 -4 45 -8z m-48 -65 c232 -18 243 -20 410 -61 75 -19 142 -34 147
-34 24 0 9 19 -19 25 -16 4 -32 11 -36 16 -7 11 -10 12 186 -36 79 -20 181
-51 225 -70 44 -18 136 -52 205 -75 69 -24 143 -52 165 -63 22 -11 89 -33 148
-48 59 -15 128 -39 152 -54 55 -32 136 -113 157 -157 32 -64 59 -186 61 -270
2 -74 -1 -87 -23 -120 -18 -27 -35 -40 -58 -44 -77 -15 -201 24 -276 86 -53
44 -300 180 -380 211 -30 11 -59 26 -66 34 -11 13 -464 168 -585 199 -33 8
-127 28 -210 43 -183 34 -423 38 -565 10 -188 -37 -277 -57 -315 -71 -132 -48
-355 -158 -445 -219 -279 -188 -428 -300 -524 -394 -108 -106 -138 -124 -195
-113 -51 9 -64 20 -102 87 -30 52 -32 60 -30 156 2 187 50 424 95 468 36 36
141 94 411 227 282 140 287 142 420 172 50 11 97 22 105 25 8 2 53 11 100 20
47 9 119 22 160 30 41 8 131 17 200 20 68 4 126 8 129 11 9 8 170 4 353 -11z
m-2057 -533 c-11 -77 -17 -37 -8 60 7 83 8 87 11 38 2 -30 0 -75 -3 -98z
m4105 28 c0 -27 14 -102 32 -167 29 -107 33 -137 40 -333 12 -305 13 -402 5
-595 -14 -338 -38 -509 -107 -785 -39 -156 -111 -497 -136 -645 -30 -175 -38
-214 -71 -325 -42 -137 -101 -254 -217 -427 -91 -136 -151 -211 -161 -202 -3
4 18 46 48 95 99 163 195 348 237 459 24 61 46 115 50 120 5 6 18 64 29 130
39 219 64 349 88 470 14 66 29 138 33 160 15 77 41 200 50 240 5 22 18 78 30
125 36 152 70 429 75 616 3 99 7 193 10 209 8 65 -13 574 -28 665 -18 115 -27
251 -15 244 4 -3 8 -27 8 -54z m-1865 19 c375 -89 330 -75 540 -166 44 -19
112 -49 150 -68 39 -18 81 -36 95 -40 46 -13 405 -196 413 -211 5 -8 46 -39
92 -68 45 -30 86 -60 90 -67 5 -7 7 -64 6 -126 l-2 -113 27 0 27 0 -6 106 c-6
95 -5 105 9 100 9 -3 27 -9 40 -12 13 -3 24 -11 25 -18 2 -41 -3 -187 -8 -214
-4 -23 -10 -32 -19 -28 -17 6 -17 -5 -4 -75 11 -52 6 -84 -28 -179 -3 -8 -11
45 -17 117 -6 73 -14 135 -17 138 -3 3 -50 8 -104 11 -81 5 -105 11 -129 29
-16 12 -34 24 -40 25 -5 2 -40 25 -77 51 -137 99 -219 117 -429 100 -79 -6
-169 -18 -199 -26 -30 -8 -68 -15 -85 -15 -39 -1 -191 -50 -231 -74 -17 -10
-39 -31 -48 -46 -43 -74 8 -210 70 -186 12 5 14 9 5 20 -9 10 7 18 82 41 50
15 108 31 127 35 19 4 105 24 190 43 207 47 368 63 483 48 96 -13 117 -19 117
-32 0 -5 -34 -9 -76 -9 -41 0 -105 -4 -142 -10 -37 -5 -101 -14 -142 -20 -41
-5 -113 -17 -160 -25 -46 -8 -125 -20 -174 -25 -49 -6 -94 -15 -100 -19 -6 -5
-78 -30 -161 -56 -82 -26 -163 -55 -180 -65 -25 -14 -64 -19 -217 -24 -179 -6
-189 -5 -255 18 -71 24 -106 32 -288 66 -233 42 -315 45 -655 20 -118 -9 -294
-45 -341 -71 -11 -6 -23 -8 -26 -6 -3 3 33 24 79 46 59 28 116 46 198 62 107
20 132 21 360 14 278 -9 340 -12 428 -21 58 -6 62 -5 62 14 0 12 5 24 10 27 6
3 10 26 10 51 0 58 -27 86 -106 108 -32 9 -107 32 -165 51 -156 50 -166 51
-377 20 -246 -35 -256 -38 -316 -94 -28 -26 -73 -62 -99 -80 -52 -36 -137
-136 -137 -163 0 -9 7 -24 15 -32 17 -17 18 -17 -70 -34 l-40 -8 3 -139 c4
-138 4 -140 33 -173 16 -18 29 -36 29 -40 0 -4 6 -15 13 -24 14 -18 -17 -19
382 16 201 19 208 19 201 7 -8 -13 -108 -27 -316 -46 -96 -9 -189 -18 -206
-21 l-30 -4 56 -115 c31 -63 67 -126 80 -140 52 -56 107 -83 193 -95 112 -16
387 -9 447 12 25 8 101 29 170 46 177 43 228 64 286 119 28 27 56 57 62 68 10
19 11 19 30 1 47 -42 77 7 102 169 13 86 4 135 -25 135 -23 0 -18 43 8 68 35
33 75 43 192 49 99 5 112 4 134 -14 17 -14 24 -31 26 -63 1 -25 17 -83 34
-130 29 -80 34 -140 11 -140 -18 0 -49 117 -50 188 0 36 -3 43 -17 40 -55 -10
15 -288 72 -288 7 0 21 10 29 22 18 25 14 29 91 -72 61 -80 79 -95 165 -139
67 -35 147 -48 386 -61 168 -9 188 -8 260 10 108 28 236 91 267 132 48 64 124
194 137 233 7 22 27 65 43 95 16 30 38 71 48 90 23 42 67 69 80 48 15 -23 -9
-960 -25 -986 -3 -6 -13 -58 -21 -117 -8 -58 -19 -123 -25 -143 -23 -89 -40
-145 -48 -156 -5 -6 -44 -75 -86 -154 -42 -79 -93 -166 -113 -195 -20 -28 -47
-75 -60 -105 -68 -154 -277 -484 -450 -712 -75 -97 -101 -123 -173 -172 -47
-32 -110 -67 -139 -78 -30 -12 -66 -28 -80 -35 -57 -31 -151 -64 -215 -76
-207 -36 -510 29 -627 135 -49 44 -53 47 -144 117 -33 26 -100 89 -150 140
-49 52 -118 119 -151 149 -34 30 -103 105 -153 167 -50 62 -159 182 -242 267
-155 159 -309 355 -357 454 -16 31 -47 91 -70 132 -24 43 -56 126 -75 195 -33
115 -43 164 -102 530 -14 88 -35 198 -46 245 -11 47 -28 132 -39 190 -11 58
-23 117 -26 133 -8 34 -3 34 86 -3 40 -16 73 -30 74 -30 0 0 -1 61 -4 137 -6
154 5 137 -97 163 -73 19 -92 43 -102 135 -23 201 -23 216 -4 206 57 -29 127
-43 180 -37 92 11 137 41 338 226 118 108 206 175 281 213 28 14 91 52 140 85
98 65 237 138 389 206 112 49 130 54 305 90 157 32 163 33 290 35 86 1 129 -5
235 -30z m779 -747 c3 -5 -15 -9 -40 -11 -25 -1 -44 2 -44 9 0 12 76 14 84 2z
m179 -48 c20 -10 37 -21 37 -26 0 -4 -26 -8 -58 -8 -53 0 -60 2 -70 26 -7 14
-26 30 -42 36 -16 5 -28 14 -25 18 6 9 101 -19 158 -46z m-1853 -10 c80 -26
117 -44 90 -43 -8 0 -33 7 -55 15 -42 15 -113 33 -155 38 -40 5 -42 5 -35 16
8 14 60 5 155 -26z m-470 12 c0 -7 -153 -87 -157 -82 -11 11 13 30 71 57 56
27 86 35 86 25z m2158 -19 c14 -14 13 -16 -9 -21 -27 -5 -93 -15 -159 -22
l-45 -5 30 14 c17 8 41 24 55 37 20 18 33 21 69 17 23 -3 50 -12 59 -20z
m-588 -27 c-14 -11 -30 -20 -37 -20 -6 0 -25 -12 -42 -26 -34 -28 -37 -27 -20
10 11 23 38 39 84 49 38 9 40 7 15 -13z m-881 -61 c9 -16 11 -36 7 -52 -6 -26
-10 -27 -64 -26 -91 2 -121 17 -34 18 69 1 72 2 72 25 0 13 -7 29 -15 36 -20
17 -19 32 2 28 10 -2 24 -15 32 -29z m-865 -14 c3 -8 12 -15 21 -15 8 0 15 -2
15 -4 0 -2 3 -11 6 -19 4 -11 -7 -16 -50 -21 -31 -4 -82 -20 -113 -36 -32 -16
-59 -28 -60 -26 -2 2 15 18 37 37 22 19 57 49 78 66 41 36 57 40 66 18z m234
-26 c-7 -5 -26 -8 -43 -8 l-30 1 30 13 c32 14 68 9 43 -6z m1443 -9 c11 0 27
-7 36 -16 14 -14 12 -15 -28 -12 -41 3 -44 5 -47 33 -2 25 -1 27 8 13 6 -10
20 -18 31 -18z m1031 -99 c79 -31 101 -76 106 -216 4 -115 -2 -147 -52 -265
-45 -106 -117 -215 -159 -240 -64 -40 -224 -87 -339 -101 -199 -25 -229 -24
-330 11 -51 18 -104 38 -118 45 -44 23 -96 106 -145 230 -44 110 -48 127 -49
210 -1 50 2 101 6 115 11 36 76 73 225 126 157 56 287 85 443 99 210 18 341
14 412 -14z m-1822 -109 c124 -42 127 -44 112 -77 -7 -14 -17 -23 -22 -20 -6
4 -8 10 -5 15 6 9 -114 55 -171 64 -38 7 -43 5 -61 -21 -54 -78 -81 -183 -63
-239 14 -41 23 -42 124 -5 63 24 129 26 71 2 -122 -49 -155 -65 -144 -72 6 -4
46 -10 88 -14 87 -8 125 -20 115 -36 -5 -8 -37 -10 -100 -7 -51 3 -97 2 -103
-1 -6 -4 -23 -32 -39 -64 l-29 -56 51 -34 c29 -19 62 -37 74 -41 22 -7 29 -21
14 -30 -13 -8 -65 20 -111 58 -48 40 -61 37 -61 -17 0 -21 -4 -28 -16 -25 -11
2 -25 29 -40 77 -24 77 -23 101 3 79 13 -10 15 -9 12 7 -3 12 -13 20 -25 21
-12 1 -33 4 -46 7 -17 5 -30 2 -39 -9 -13 -16 -260 -181 -286 -191 -10 -4 -14
-1 -12 11 4 15 218 156 238 156 13 0 58 54 63 76 7 29 3 33 -67 76 -62 37
-110 58 -277 122 -53 20 -102 43 -108 51 -7 8 -39 22 -71 31 -32 9 -59 20 -59
25 0 14 20 21 33 11 7 -5 26 -12 42 -16 17 -4 47 -19 67 -33 36 -24 256 -113
281 -113 6 0 2 6 -9 14 -11 8 -53 55 -94 106 l-75 92 -70 -6 c-38 -3 -104 -15
-145 -26 -41 -11 -76 -20 -77 -20 -2 0 -3 5 -3 10 0 6 12 15 26 20 33 13 259
57 299 59 17 1 95 5 175 10 80 5 213 8 295 7 139 -2 157 -4 245 -34z m-1070
-91 c0 -5 -7 -14 -15 -21 -12 -10 -15 -10 -15 2 0 8 3 18 7 21 9 10 23 9 23
-2z m215 -253 c7 -7 -9 -8 -52 -4 -42 5 -63 3 -63 -4 0 -5 -4 -10 -10 -10 -5
0 -10 8 -10 18 0 10 -15 23 -40 34 -22 9 -40 23 -40 30 0 11 25 6 103 -20 56
-18 107 -38 112 -44z m1099 34 c-15 -97 -35 -187 -43 -195 -18 -18 -33 30 -21
71 5 22 14 63 20 92 10 55 26 84 41 74 5 -3 6 -22 3 -42z m-134 -141 c0 -9
-41 -23 -49 -16 -3 4 28 20 47 24 1 1 2 -3 2 -8z m-248 -70 c-12 -7 -62 -4
-62 5 0 2 17 4 38 4 23 0 32 -3 24 -9z m-758 -66 c21 -33 105 -70 174 -79 30
-4 69 -15 89 -26 33 -17 33 -19 12 -25 -48 -16 -143 -9 -189 14 -61 30 -140
104 -140 132 0 19 39 7 54 -16z m3077 -257 c-9 -31 -9 -30 -10 24 -1 31 2 65
7 75 11 29 15 -59 3 -99z m336 -873 c-9 -38 -12 -44 -15 -24 -3 25 15 86 23
78 2 -2 -2 -27 -8 -54z m148 -30 c4 -22 -4 -48 -27 -95 -45 -88 -61 -88 -32 1
13 40 27 88 30 107 7 38 21 32 29 -13z m-176 -139 c-5 -37 -16 -78 -24 -89 -9
-12 -20 -40 -26 -62 -43 -159 -266 -488 -516 -762 -43 -47 -86 -99 -96 -114
-23 -36 -54 -41 -36 -6 25 47 84 124 128 167 94 90 215 250 265 348 14 28 55
94 89 145 35 51 77 120 94 152 16 33 37 74 47 90 9 17 30 70 47 118 17 48 33
87 35 85 2 -2 -1 -34 -7 -72z m-4293 -163 c-7 -7 -36 54 -35 74 0 10 9 -2 20
-26 11 -24 17 -46 15 -48z m468 -229 c3 -8 2 -12 -4 -9 -6 3 -10 10 -10 16 0
14 7 11 14 -7z m565 -35 c22 -28 68 -102 101 -165 34 -64 116 -204 184 -312
67 -108 160 -260 206 -337 46 -77 125 -203 175 -280 175 -266 188 -337 17 -92
-282 405 -496 753 -631 1026 -32 65 -70 139 -86 164 -36 62 -17 60 34 -4z
m-529 -24 c14 -19 14 -19 -2 -6 -10 7 -18 18 -18 24 0 6 1 8 3 6 1 -2 9 -13
17 -24z m34 -41 c5 -14 4 -15 -9 -4 -17 14 -19 20 -6 20 5 0 12 -7 15 -16z
m4146 -96 c-36 -108 -138 -259 -279 -414 -78 -84 -139 -156 -207 -244 -32 -41
-88 -109 -124 -150 -37 -41 -125 -149 -195 -240 -71 -91 -167 -210 -214 -266
-47 -55 -148 -176 -223 -270 -132 -164 -268 -310 -268 -288 0 13 101 158 258
372 163 221 194 258 216 254 24 -5 25 -4 190 243 74 110 161 227 193 261 32
34 124 130 205 215 81 85 161 176 179 202 17 26 34 47 38 47 13 0 94 110 150
203 29 48 56 87 60 87 4 0 13 12 20 26 20 45 21 22 1 -38z m-4380 -280 c0 -5
-8 -8 -17 -6 -10 2 -17 11 -17 21 5 65 4 64 19 28 8 -18 15 -38 15 -43z m480
19 c0 -4 13 -27 28 -50 16 -23 32 -49 37 -57 7 -13 6 -13 -8 0 -20 19 -87 131
-87 144 1 13 30 -24 30 -37z m-437 -114 c36 -82 104 -273 97 -273 -17 0 -115
177 -140 254 -10 32 -10 40 1 47 22 14 25 11 42 -28z m595 -140 c33 -54 70
-118 82 -143 13 -25 31 -56 42 -70 44 -58 151 -229 175 -280 14 -30 41 -79 59
-108 19 -29 34 -55 34 -58 0 -3 26 -36 58 -72 70 -81 128 -160 167 -227 15
-27 50 -82 77 -121 52 -76 69 -135 22 -79 -14 17 -61 84 -106 150 -90 134
-187 263 -212 284 -9 7 -29 39 -45 70 -16 31 -46 85 -65 121 -19 36 -42 79
-49 96 -8 17 -32 53 -52 80 -21 27 -44 65 -52 84 -8 19 -23 44 -33 55 -10 11
-33 49 -50 84 -18 35 -51 94 -75 131 -44 68 -66 118 -47 106 5 -3 37 -50 70
-103z m4026 -127 c-3 -14 -1 -40 4 -58 14 -44 24 -150 13 -122 -18 42 -36 166
-28 189 10 24 18 17 11 -9z m-2080 -78 c-4 -13 -19 -41 -34 -63 -15 -22 -50
-83 -77 -135 -140 -266 -224 -421 -260 -480 -21 -36 -64 -111 -93 -168 -50
-96 -81 -134 -94 -114 -4 7 35 105 84 207 30 63 204 373 249 445 23 36 69 111
104 167 66 107 107 163 120 163 5 0 5 -10 1 -22z m348 -110 c-23 -29 -54 -82
-70 -118 -16 -36 -65 -112 -108 -170 -42 -58 -101 -143 -129 -190 -28 -47 -66
-107 -83 -135 -37 -59 -93 -210 -156 -420 -70 -235 -93 -326 -100 -385 -3 -30
-13 -93 -21 -140 -8 -47 -21 -139 -30 -205 -9 -66 -29 -171 -46 -233 -16 -62
-38 -165 -49 -229 -11 -64 -22 -119 -25 -121 -13 -14 -2 143 15 218 66 279
112 571 91 578 -7 2 -9 20 -6 45 4 33 -1 24 -22 -37 -15 -44 -28 -76 -30 -70
-2 5 32 151 76 324 77 307 142 498 168 493 6 -1 30 42 54 95 90 200 310 536
472 723 46 53 45 39 -1 -23z m-3192 -85 c0 -16 -18 -53 -80 -174 -10 -19 -26
-41 -34 -49 -30 -24 -18 21 36 132 49 99 78 134 78 91z m-380 -54 c0 -12 -20
-41 -45 -67 -29 -28 -45 -53 -45 -69 0 -24 -22 -76 -45 -103 -7 -8 -15 -27
-19 -42 -3 -15 -19 -49 -35 -76 -15 -26 -38 -75 -50 -107 -35 -92 -79 -193
-116 -265 -31 -60 -105 -241 -105 -256 0 -4 -18 -45 -41 -92 -22 -47 -53 -119
-69 -161 -26 -70 -65 -160 -125 -286 -43 -91 -62 -139 -80 -200 -10 -33 -31
-100 -47 -148 -31 -93 -59 -193 -88 -317 -10 -41 -30 -118 -44 -170 -69 -255
-114 -456 -132 -595 -18 -144 -27 -175 -48 -175 -17 0 -30 32 -22 58 3 9 12
73 20 142 9 69 25 161 37 205 11 44 29 116 39 160 10 44 28 116 40 160 12 44
44 163 70 265 45 175 142 494 160 529 25 45 113 237 143 311 20 47 42 98 51
114 18 36 13 48 -17 36 -12 -4 -50 -14 -85 -21 -63 -12 -139 -5 -243 22 -57
14 -77 11 -85 -13 -3 -13 -32 -77 -64 -143 -31 -66 -72 -163 -89 -215 -18 -52
-37 -104 -41 -115 -16 -37 -130 -390 -130 -402 0 -7 -24 -100 -54 -207 -30
-107 -58 -216 -62 -243 -3 -26 -13 -77 -21 -113 -8 -36 -19 -99 -25 -140 -12
-86 -26 -110 -51 -86 -19 19 -16 47 17 190 13 55 29 133 36 171 7 39 21 97 32
130 19 60 47 161 73 265 17 67 88 280 150 450 25 69 53 144 61 168 8 23 46
107 84 185 39 78 70 153 70 168 0 14 4 29 10 35 5 5 20 39 34 76 14 37 34 87
45 110 10 24 26 61 34 83 60 158 160 328 252 425 28 30 68 78 89 107 20 29 50
63 65 76 16 13 32 33 35 45 4 12 13 22 19 22 7 0 25 7 41 15 16 9 31 13 34 11
2 -3 19 1 36 8 37 16 39 16 71 16 14 0 25 5 25 10 0 14 -99 2 -119 -14 -12 -9
-12 -8 -3 10 11 22 63 34 141 34 19 0 53 6 76 14 71 24 99 32 128 34 22 2 27
-2 27 -19z m721 -1 c11 -21 11 -22 -4 -9 -10 7 -17 17 -17 22 0 15 9 10 21
-13z m1089 2 c16 -9 105 -181 312 -605 21 -44 48 -95 59 -112 12 -18 27 -56
34 -84 12 -44 12 -49 -1 -38 -37 31 -132 198 -263 464 -78 160 -151 307 -162
328 -26 49 -17 68 21 47z m3589 -137 c7 -49 22 -116 33 -151 26 -82 18 -101
-11 -26 -35 90 -63 264 -43 264 5 0 14 -39 21 -87z m1044 -51 c24 -97 38 -205
28 -215 -11 -11 -41 76 -41 118 0 17 -6 53 -13 80 -13 51 -12 85 2 85 4 0 15
-31 24 -68z m-3713 9 c0 -6 -4 -13 -10 -16 -5 -3 -10 1 -10 9 0 9 5 16 10 16
6 0 10 -4 10 -9z m-124 -58 c-11 -11 -19 6 -11 24 8 17 8 17 12 0 3 -10 2 -21
-1 -24z m-88 -100 c49 -118 159 -509 164 -585 4 -64 -9 -52 -26 24 -33 143
-116 436 -150 524 -34 89 -52 154 -43 154 3 0 27 -53 55 -117z m-2351 -43 c-8
-37 -44 -117 -56 -125 -20 -12 -20 15 -1 75 24 74 27 80 47 80 12 0 14 -7 10
-30z m998 10 c3 -5 1 -10 -4 -10 -6 0 -11 5 -11 10 0 6 2 10 4 10 3 0 8 -4 11
-10z m30 -197 c50 -54 108 -123 129 -153 22 -30 68 -94 102 -141 35 -47 84
-123 110 -170 25 -46 70 -120 98 -164 29 -44 72 -111 97 -150 57 -91 177 -249
301 -398 55 -66 123 -152 151 -191 l52 -71 3 33 c2 18 -1 64 -7 102 -13 80
-13 282 -1 355 4 28 15 86 24 129 15 74 15 83 0 123 -21 55 -13 107 22 144 41
43 82 47 143 13 70 -40 89 -96 55 -167 -16 -34 -69 -77 -95 -77 -11 0 -19 -29
-33 -121 -16 -106 -18 -155 -12 -388 l7 -266 35 -52 c37 -53 216 -274 307
-378 107 -121 156 -228 191 -420 15 -77 31 -205 37 -285 5 -80 17 -188 25
-240 8 -52 18 -135 24 -185 5 -49 11 -106 15 -125 19 -120 -109 420 -164 690
-22 105 -39 145 -95 224 -23 33 -65 97 -91 141 -85 141 -147 231 -141 205 4
-14 16 -61 27 -105 17 -65 20 -99 15 -180 -13 -250 -26 -379 -41 -432 -18 -62
-70 -158 -141 -261 -43 -62 -44 -65 -43 -139 1 -62 -2 -79 -16 -89 -11 -8 -14
-18 -9 -26 11 -17 5 -150 -6 -162 -19 -20 -31 54 -32 199 -1 161 1 168 58 252
28 42 89 167 110 225 24 70 43 163 53 273 20 203 10 292 -46 415 -17 36 -38
90 -48 120 -10 30 -32 73 -49 95 -72 93 -232 269 -307 337 -80 71 -152 159
-238 287 -49 72 -154 204 -215 271 -23 25 -63 79 -90 120 -27 41 -61 93 -76
115 -15 22 -68 123 -118 225 -68 138 -101 220 -131 322 -22 76 -56 175 -76
220 -19 45 -35 86 -35 91 0 6 17 -13 38 -41 20 -27 78 -94 127 -149z m1542
105 c-20 -40 -37 -82 -39 -93 -3 -17 -5 -18 -10 -4 -7 17 68 186 78 176 3 -3
-10 -38 -29 -79z m-320 40 c-3 -8 -6 -5 -6 6 -1 11 2 17 5 13 3 -3 4 -12 1
-19z m3073 -200 c0 -23 9 -75 21 -115 21 -77 22 -131 2 -83 -32 72 -57 260
-33 245 6 -3 10 -25 10 -47z m1053 -85 c9 -27 18 -83 22 -125 5 -66 4 -77 -9
-72 -19 7 -46 76 -46 117 0 18 -4 46 -9 63 -9 31 1 64 19 64 4 0 15 -21 23
-47z m-6512 -59 c-5 -16 -15 -49 -22 -74 -7 -25 -19 -54 -26 -65 -12 -18 -13
-16 -13 20 1 54 14 110 35 141 22 33 39 19 26 -22z m5562 -288 c3 -8 9 -69 13
-135 6 -104 5 -121 -8 -121 -12 0 -17 17 -22 73 -3 39 -9 89 -12 109 -10 61
13 117 29 74z m1079 -137 c4 -35 10 -85 14 -111 7 -53 -6 -63 -25 -20 -8 15
-17 35 -22 44 -10 20 -12 102 -3 136 11 41 29 17 36 -49z m-6778 18 c-8 -40
-35 -87 -46 -81 -13 8 -10 29 12 79 22 52 45 53 34 2z m2765 -335 c16 -86 32
-197 35 -247 6 -82 5 -88 -8 -63 -8 15 -14 48 -15 75 0 26 -7 82 -16 123 -9
41 -25 125 -35 185 -33 186 -33 175 -10 127 12 -23 34 -113 49 -200z m525 181
c8 -20 9 -19 -37 -26 -32 -5 -38 -3 -33 9 3 9 6 19 6 24 0 10 30 18 47 12 6
-2 14 -11 17 -19z m-1236 -68 c25 -21 112 -161 112 -180 0 -3 -13 9 -28 27
-44 52 -132 167 -132 173 0 12 20 3 48 -20z m-2168 -145 c0 -28 -23 -110 -31
-110 -12 0 -12 62 1 94 9 25 30 36 30 16z m5920 -165 c12 -50 28 -100 36 -113
16 -24 11 -42 -10 -42 -18 0 -40 58 -61 157 -17 79 -14 137 5 103 4 -8 18 -56
30 -105z m1043 53 c20 -77 39 -167 44 -216 4 -35 2 -41 -10 -36 -17 6 -70 152
-66 181 2 10 -1 33 -5 50 -8 34 -1 73 14 73 5 0 15 -24 23 -52z m-7090 -320
c-6 -7 -13 -26 -17 -42 -10 -40 -20 -24 -12 19 5 22 13 35 23 35 11 0 13 -4 6
-12z m6111 -150 c2 -13 9 -68 15 -123 5 -55 11 -111 13 -125 4 -34 -23 -33
-39 1 -7 14 -15 80 -19 147 -6 109 -5 122 9 122 9 0 19 -10 21 -22z m1087 -25
c0 -10 3 -46 5 -80 3 -35 0 -63 -5 -63 -12 0 -41 63 -41 88 0 49 39 100 41 55z
m-7333 -296 c-16 -44 -24 -56 -26 -40 -3 20 20 102 36 127 18 29 11 -32 -10
-87z m3864 -10 c-22 -84 -42 -204 -52 -312 -9 -95 -37 -249 -39 -220 -1 6 -10
70 -21 143 -11 74 -20 149 -20 169 0 42 35 127 68 168 14 16 34 50 45 75 23
52 34 38 19 -23z m3547 -168 c7 -22 15 -79 18 -127 4 -70 3 -85 -7 -75 -12 11
-20 41 -39 160 -5 28 -12 66 -16 85 -7 32 -7 33 12 15 11 -9 25 -35 32 -58z
m-1073 -60 c6 -52 14 -104 18 -116 8 -26 -5 -31 -23 -9 -18 21 -43 186 -33
214 12 34 28 -3 38 -89z m-6416 -104 c0 -24 -5 -35 -15 -35 -11 0 -15 -11 -15
-39 0 -22 -4 -43 -10 -46 -17 -10 -12 81 5 95 8 7 15 20 15 30 0 15 8 30 17
30 2 0 3 -16 3 -35z m7540 -244 c0 -27 3 -58 6 -68 3 -10 -2 -7 -10 7 -17 28
-22 110 -6 110 6 0 10 -22 10 -49z m-1048 -98 c20 -115 24 -154 18 -158 -12
-7 -30 20 -34 51 -2 16 -7 48 -11 71 -7 42 1 101 12 89 3 -3 10 -27 15 -53z
m-6561 -168 c-6 -17 -11 -68 -11 -113 0 -48 -4 -82 -10 -82 -6 0 -10 51 -10
134 0 79 4 137 10 141 6 3 11 16 11 28 1 12 6 0 12 -27 7 -35 7 -58 -2 -81z
m7652 -57 c3 -18 12 -66 21 -107 9 -41 13 -77 11 -80 -9 -8 -33 33 -41 69 -4
19 -9 40 -10 45 -10 36 -16 87 -10 100 9 24 23 10 29 -27z m-3914 -85 c-1 -39
-2 -43 -9 -23 -12 36 -12 70 0 70 6 0 10 -21 9 -47z m2924 -209 c11 -18 57
-267 56 -303 -1 -33 -2 -32 -15 19 -31 126 -64 295 -63 324 l1 31 7 -31 c4
-17 10 -35 14 -40z m-3046 -251 c-3 -10 -5 -4 -5 12 0 17 2 24 5 18 2 -7 2
-21 0 -30z"/>
<path d="M5505 11669 l-40 -6 43 -2 c56 -1 54 -21 -3 -21 -27 0 -45 5 -45 11
0 8 -4 8 -12 2 -7 -6 -53 -18 -103 -28 -49 -9 -98 -21 -107 -26 -22 -12 -23
-29 -3 -29 20 0 19 -12 -5 -43 -11 -14 -20 -28 -20 -32 0 -9 -55 -81 -94 -122
-16 -18 -31 -40 -32 -49 -5 -30 -53 -92 -95 -120 -23 -16 -45 -36 -47 -44 -3
-9 9 -4 31 13 39 29 44 26 27 -18 -9 -24 -5 -28 51 -70 34 -25 66 -45 71 -45
5 0 6 -9 3 -20 -3 -11 -4 -20 0 -20 3 0 36 29 73 64 36 36 69 63 73 60 12 -7
5 -157 -7 -161 -16 -5 -28 47 -15 60 15 15 14 27 -2 27 -18 0 -88 -76 -79 -85
4 -3 18 8 32 25 l26 32 23 -134 c13 -73 28 -145 33 -161 10 -25 12 -79 10
-202 -1 -45 12 -58 48 -50 14 3 81 10 150 16 69 5 131 12 138 14 6 2 12 20 12
39 0 19 4 37 9 41 10 6 -11 54 -28 64 -13 8 -25 91 -52 356 -11 115 -22 212
-25 214 -2 2 -10 -2 -19 -9 -13 -10 -15 -9 -15 9 0 12 7 24 15 27 21 9 19 33
-2 28 -15 -4 -19 2 -21 35 -1 25 3 45 13 54 19 19 19 28 1 21 -14 -5 -15 5
-29 191 -2 17 4 20 32 19 42 -1 52 -20 17 -34 -22 -8 -26 -15 -25 -47 l2 -38
6 35 c4 26 12 36 29 38 17 3 22 10 22 32 0 19 6 29 20 33 25 7 26 27 1 27 -10
0 -25 8 -32 18 -11 14 -22 17 -54 11z m26 -552 c-8 -8 -11 -1 -11 24 0 46 14
60 18 19 2 -18 -1 -37 -7 -43z m19 -34 c0 -23 -17 -49 -26 -41 -9 10 4 58 16
58 6 0 10 -8 10 -17z m8 -110 c-4 -62 -28 -71 -28 -10 0 24 3 47 7 50 16 17
24 3 21 -40z m-273 -62 c-3 -12 -11 -21 -16 -21 -10 0 -12 43 -2 54 12 12 25
-11 18 -33z m285 -25 c0 -7 -7 -19 -15 -26 -12 -10 -15 -9 -15 7 0 11 3 23 7
26 11 12 23 8 23 -7z m-280 -31 c0 -14 -4 -25 -10 -25 -11 0 -14 33 -3 43 11
11 13 8 13 -18z m280 -49 c0 -14 -4 -27 -9 -30 -12 -8 -22 20 -15 39 9 23 24
18 24 -9z m-270 -23 c0 -20 -3 -24 -11 -16 -7 7 -9 19 -6 27 10 24 17 19 17
-11z m280 -53 c0 -10 -4 -22 -10 -25 -6 -4 -10 7 -10 25 0 18 4 29 10 25 6 -3
10 -15 10 -25z m-273 -12 c-3 -8 -6 -5 -6 6 -1 11 2 17 5 13 3 -3 4 -12 1 -19z
m283 -58 c0 -10 8 -23 17 -29 20 -11 17 -16 -14 -25 -22 -7 -23 -4 -23 39 0
28 4 44 10 40 6 -3 10 -15 10 -25z m-260 -42 c0 -10 -4 -18 -10 -18 -5 0 -10
15 -10 33 0 24 3 28 10 17 5 -8 10 -23 10 -32z m10 -63 c0 -8 -2 -15 -4 -15
-2 0 -11 -3 -20 -6 -10 -4 -16 -1 -16 9 0 14 13 24 33 26 4 1 7 -6 7 -14z
m286 -12 c-2 -10 -13 -20 -27 -22 -24 -3 -24 -3 -5 18 23 26 35 27 32 4z
m-141 -22 c-11 -9 -103 -26 -94 -17 3 3 23 10 45 15 53 12 60 13 49 2z m65 5
c0 -2 -7 -6 -15 -10 -8 -3 -15 -1 -15 4 0 6 7 10 15 10 8 0 15 -2 15 -4z
m-195 -26 c-3 -5 -11 -10 -16 -10 -6 0 -7 5 -4 10 3 6 11 10 16 10 6 0 7 -4 4
-10z"/>
<path d="M5383 11653 c9 -2 25 -2 35 0 9 3 1 5 -18 5 -19 0 -27 -2 -17 -5z"/>
<path d="M5318 11643 c6 -2 18 -2 25 0 6 3 1 5 -13 5 -14 0 -19 -2 -12 -5z"/>
<path d="M5268 11633 c7 -3 16 -2 19 1 4 3 -2 6 -13 5 -11 0 -14 -3 -6 -6z"/>
<path d="M5228 11623 c7 -3 16 -2 19 1 4 3 -2 6 -13 5 -11 0 -14 -3 -6 -6z"/>
<path d="M5180 11579 c0 -36 2 -40 15 -29 12 10 12 16 4 26 -6 8 -9 21 -5 29
3 8 1 15 -4 15 -6 0 -10 -19 -10 -41z"/>
<path d="M5127 11457 c-24 -37 -21 -55 4 -23 11 14 19 31 17 37 -2 7 -12 0
-21 -14z"/>
<path d="M6670 11742 c0 -5 33 -10 73 -10 49 -1 67 2 57 8 -19 12 -130 13
-130 2z"/>
<path d="M6856 11725 c-13 -9 -43 -15 -80 -15 -69 0 -126 -27 -126 -59 0 -20
-44 -61 -65 -61 -14 0 -29 -29 -20 -38 3 -3 5 -1 5 5 0 5 11 15 25 21 14 6 25
9 25 6 0 -15 -31 -62 -45 -68 -25 -9 -28 -8 -20 12 13 34 -13 -4 -94 -141
l-81 -137 6 -188 c3 -103 5 -264 5 -358 l-1 -171 88 -7 c48 -4 119 -11 157
-16 39 -5 129 -14 200 -19 72 -6 154 -12 184 -15 l54 -5 -7 277 c-11 422 -23
658 -35 680 -9 17 -25 21 -88 27 -43 3 -84 8 -91 11 -13 4 2 29 70 127 11 16
17 31 14 34 -7 7 -36 -22 -36 -36 0 -13 -66 -117 -80 -126 -22 -14 -8 -25 31
-25 35 0 40 -3 35 -17 -6 -15 -5 -15 11 -2 10 8 24 14 31 13 6 -1 21 -2 33 -3
16 -1 19 -5 15 -18 -6 -14 -4 -14 14 2 29 27 45 3 24 -37 -16 -31 -29 -35 -41
-15 -8 14 -94 47 -123 47 -9 0 -25 8 -37 17 l-21 17 21 40 c11 23 32 57 46 75
14 19 26 42 28 50 1 9 5 31 9 49 3 17 2 32 -2 32 -5 0 -16 5 -24 10 -13 8 -12
11 5 24 11 9 16 15 10 15 -5 0 -19 -6 -29 -14z m-304 -262 c-11 -16 -45 -70
-75 -121 -49 -80 -55 -96 -44 -113 13 -20 2 -49 -21 -57 -16 -5 -15 40 1 57
10 11 10 13 0 7 -22 -12 -14 7 43 109 79 140 83 145 100 145 13 0 12 -4 -4
-27z m475 -195 c-1 -63 -6 -93 -14 -96 -16 -5 -17 41 -3 69 7 13 7 19 0 19
-11 0 -14 58 -4 84 15 39 23 9 21 -76z m-317 -67 c0 -5 -9 -19 -20 -32 l-19
-24 -1 33 c0 25 4 32 20 32 11 0 20 -4 20 -9z m98 -6 c3 -3 -17 -29 -44 -59
-27 -30 -59 -67 -71 -83 l-22 -28 -1 37 c0 26 11 54 36 94 34 52 38 56 67 50
17 -3 33 -8 35 -11z m-55 -173 c-73 -90 -78 -94 -81 -68 -4 32 19 69 99 166
l54 64 3 -33 c3 -28 -8 -46 -75 -129z m-303 129 c0 -11 -8 -27 -17 -37 -17
-17 -18 -16 -21 11 -2 15 2 32 10 36 20 13 28 11 28 -10z m576 -77 c-3 -8 -10
-14 -16 -14 -14 0 -13 57 3 83 11 21 12 20 15 -17 2 -21 1 -44 -2 -52z m-595
-48 l-21 -20 0 28 c0 16 8 38 18 49 17 19 17 19 20 -8 2 -18 -4 -35 -17 -49z
m356 -79 c-101 -117 -115 -132 -123 -124 -17 17 16 81 86 167 l75 91 3 -41 c3
-37 -2 -47 -41 -93z m231 42 c-18 -12 -22 14 -6 43 l13 23 3 -29 c2 -16 -2
-32 -10 -37z m-579 -35 c-7 -13 -16 -24 -21 -24 -15 0 -8 53 10 73 17 19 17
19 20 -3 2 -13 -2 -34 -9 -46z m591 -13 c0 -35 -9 -61 -21 -61 -10 0 -12 34
-3 68 9 32 24 27 24 -7z m-200 -13 c-1 -26 -12 -46 -53 -89 -29 -31 -63 -70
-76 -87 -26 -33 -41 -33 -41 -2 0 20 151 210 167 210 1 0 3 -15 3 -32z m-391
-84 c-6 -13 -16 -21 -21 -18 -15 9 -9 67 10 87 17 19 17 19 20 -14 2 -18 -2
-43 -9 -55z m601 -3 c0 -16 -9 -39 -20 -52 l-19 -24 -1 33 c0 36 15 72 30 72
6 0 10 -13 10 -29z m-214 -13 c-3 -13 -6 -30 -6 -38 0 -8 -13 -29 -29 -46 -23
-24 -35 -30 -59 -26 l-30 4 21 26 c87 103 116 125 103 80z m-383 -50 c-8 -48
-23 -58 -23 -17 0 35 6 49 21 49 5 0 6 -15 2 -32z m597 -35 c0 -25 -8 -48 -25
-68 l-24 -30 -1 35 c0 31 31 100 45 100 3 0 5 -17 5 -37z m-220 -23 c0 -5 -5
-10 -11 -10 -5 0 -7 5 -4 10 3 6 8 10 11 10 2 0 4 -4 4 -10z m-384 -70 l-4
-70 33 0 c39 0 65 -8 65 -21 0 -5 -24 -8 -54 -8 -33 1 -53 6 -52 13 0 6 -3 32
-7 57 -7 41 3 99 17 99 3 0 4 -31 2 -70z m573 -61 c-17 -22 -34 -38 -37 -35
-3 3 0 11 5 18 6 7 14 24 18 38 4 14 15 36 24 50 l16 24 3 -27 c2 -19 -6 -40
-29 -68z m35 -26 c-1 -15 -2 -36 -3 -45 -1 -14 -10 -18 -36 -18 -19 0 -35 2
-35 5 0 11 65 93 70 90 3 -2 5 -16 4 -32z m-434 -13 c0 -5 -13 -10 -30 -10
-16 0 -30 5 -30 10 0 6 14 10 30 10 17 0 30 -4 30 -10z m104 -5 c-7 -16 -69
-21 -78 -6 -9 14 6 21 45 21 30 0 37 -3 33 -15z m89 8 c13 -13 -16 -33 -49
-33 -36 0 -42 8 -22 28 13 13 60 16 71 5z m92 -23 c-15 -17 -85 -30 -85 -16 0
26 16 36 58 36 44 0 45 0 27 -20z m65 -10 c0 -5 -14 -10 -31 -10 -17 0 -28 4
-24 10 3 6 17 10 31 10 13 0 24 -4 24 -10z"/>
<path d="M6975 11710 c3 -5 2 -10 -3 -10 -5 0 -12 -9 -15 -20 -7 -25 -3 -25
22 2 20 21 20 38 0 38 -6 0 -7 -4 -4 -10z"/>
<path d="M7561 11308 c-1 -4 4 -19 10 -35 5 -15 11 -41 13 -58 3 -32 71 -350
86 -400 5 -16 12 -111 15 -210 3 -99 10 -184 15 -189 20 -20 30 12 31 100 2
160 -31 357 -95 567 -20 65 -36 126 -36 135 -1 17 -38 103 -39 90z"/>
<path d="M5906 7822 c-51 -140 -79 -187 -124 -209 -53 -26 -69 -62 -79 -181
-8 -93 -7 -106 11 -137 14 -24 32 -38 65 -49 54 -17 65 -14 23 8 -75 39 -98
105 -70 199 9 31 9 42 0 45 -13 4 -16 0 77 107 39 44 79 98 90 120 20 42 61
171 61 193 0 34 -19 2 -54 -96z"/>
<path d="M5193 7818 c-36 -8 -48 -18 -91 -76 -65 -89 -72 -103 -72 -154 0
-103 149 -171 224 -102 40 37 53 76 61 177 7 88 7 88 -21 119 -40 41 -53 46
-101 36z"/>
<path d="M4835 7749 c-46 -41 -65 -77 -54 -106 14 -39 92 -66 127 -44 27 17
10 173 -20 179 -9 2 -32 -11 -53 -29z"/>
<path d="M6547 7744 c-11 -12 41 -99 84 -139 23 -22 38 -33 34 -25 -6 10 -1 8
13 -4 17 -15 22 -16 22 -5 0 8 -27 38 -60 67 -33 29 -60 59 -60 65 -1 17 -26
48 -33 41z"/>
<path d="M6016 7674 c-11 -8 -16 -14 -10 -14 13 0 39 18 34 24 -3 2 -14 -2
-24 -10z"/>
<path d="M6685 7523 c8 -21 22 -64 31 -97 17 -56 17 -59 -1 -93 -11 -19 -30
-43 -43 -54 -19 -14 -21 -19 -9 -19 9 0 30 12 47 28 26 24 31 36 36 100 4 45
3 72 -3 72 -5 0 -18 18 -28 40 -26 57 -49 75 -30 23z"/>
<path d="M5940 7460 c0 -9 9 -33 20 -55 23 -46 21 -52 -13 -30 -19 12 -30 14
-44 6 -10 -5 -31 -12 -46 -16 -25 -5 -28 -10 -25 -37 2 -24 11 -37 38 -52 30
-18 54 -21 179 -23 79 -1 156 -7 170 -12 30 -13 161 8 186 29 8 6 23 9 34 5
11 -3 46 2 78 11 119 34 140 105 31 107 -26 0 -48 7 -55 16 -9 12 -12 13 -13
3 0 -8 -9 -25 -19 -38 -16 -21 -20 -22 -23 -8 -2 13 -9 8 -28 -19 -32 -48 -78
-69 -161 -75 -148 -10 -227 30 -280 142 -16 33 -29 54 -29 46z"/>
<path d="M7422 7380 c0 -19 2 -27 5 -17 2 9 2 25 0 35 -3 9 -5 1 -5 -18z"/>
<path d="M6355 6969 c5 -43 3 -49 -25 -73 -46 -38 -100 -36 -139 7 -23 23 -31
28 -31 15 0 -31 48 -58 104 -58 46 0 56 4 85 34 l33 34 -16 44 -16 43 5 -46z"/>
<path d="M6365 6791 c-11 -3 -34 -14 -52 -24 -31 -16 -34 -16 -80 1 -32 12
-58 16 -78 11 -16 -4 -59 -12 -95 -19 -36 -6 -119 -34 -184 -61 -121 -50 -206
-65 -250 -45 -17 8 -18 6 -14 -17 3 -15 1 -27 -3 -27 -5 0 -9 -4 -9 -10 0 -5
24 -10 53 -10 69 -1 175 -49 296 -136 19 -13 48 -24 65 -25 34 -1 90 -16 67
-18 -25 -2 0 -17 58 -36 131 -43 376 13 539 122 46 31 86 63 90 71 7 19 162
92 196 92 16 0 26 6 26 15 0 11 -12 15 -45 15 -26 0 -79 13 -123 29 -42 16
-122 36 -177 45 -260 41 -244 39 -280 27z m373 -141 c28 -8 52 -17 52 -22 0
-5 -26 -25 -57 -45 -31 -20 -77 -51 -101 -70 -67 -51 -93 -62 -199 -83 -124
-25 -214 -28 -278 -11 -27 8 -80 22 -117 33 -36 10 -88 34 -115 53 -26 18 -70
46 -98 62 l-50 27 55 7 c30 4 87 14 126 21 61 12 80 12 125 1 29 -7 57 -17 63
-22 6 -4 34 -15 61 -24 64 -20 160 -9 229 27 27 14 57 26 65 27 9 0 41 9 71
19 61 20 90 20 168 0z"/>
<path d="M7005 6480 c-4 -6 1 -20 10 -30 16 -18 15 -20 -24 -44 -22 -14 -43
-26 -45 -26 -2 0 -14 16 -27 36 -19 31 -23 34 -31 20 -7 -12 -4 -27 10 -50 22
-38 16 -53 -34 -79 -31 -16 -32 -16 -37 4 -8 30 -31 18 -35 -19 -3 -25 -10
-33 -35 -42 -42 -14 -101 -65 -93 -79 11 -17 40 -13 53 8 7 10 33 27 59 37
l47 18 23 -28 c24 -27 44 -28 44 -2 0 7 -9 21 -20 31 -20 18 -20 19 31 46 39
22 56 26 69 19 34 -18 53 -12 46 13 -8 34 52 87 83 73 37 -16 47 8 16 37 -42
38 -102 69 -110 57z"/>
<path d="M6907 8589 c-49 -10 -101 -26 -115 -33 -45 -23 -122 -97 -122 -116 0
-24 20 -30 46 -13 29 18 144 30 144 14 0 -7 10 -35 21 -62 37 -86 125 -119
231 -87 53 16 93 73 84 119 -6 30 -5 31 22 26 15 -2 42 -11 60 -18 40 -17 68
-3 64 32 -1 12 -5 25 -7 28 -15 14 -447 29 -515 17 -38 -7 -43 -7 -32 6 14 17
60 32 153 48 84 15 327 4 384 -17 22 -8 53 -17 68 -20 26 -5 28 -3 25 22 -2
22 -12 31 -53 47 -77 30 -338 34 -458 7z m131 -135 c23 -7 23 -7 2 -21 -11 -8
-20 -21 -20 -29 0 -26 -30 -13 -48 22 -6 12 -8 24 -5 28 8 8 41 8 71 0z"/>
<path d="M5223 8679 c-84 -3 -155 -8 -159 -11 -12 -12 220 -258 268 -284 19
-10 29 -11 34 -3 3 6 3 56 -1 110 -4 61 -3 99 3 99 11 0 22 -58 22 -121 0 -50
18 -112 30 -107 16 6 80 104 110 168 17 36 40 82 51 103 12 21 19 40 18 41 -9
8 -237 11 -376 5z m77 -11 c1 -2 3 -51 7 -110 6 -125 -10 -151 -21 -31 -9 106
-8 143 4 143 6 0 10 -1 10 -2z m183 -163 c-16 -48 -63 -138 -63 -121 0 4 9 25
19 45 10 20 27 58 36 84 9 27 19 46 21 44 2 -2 -3 -25 -13 -52z"/>
<path d="M3520 5218 c-58 -16 -61 -30 -5 -26 38 2 51 7 53 21 4 19 2 19 -48 5z"/>
<path d="M3420 5149 c-19 -4 -70 -16 -114 -25 -52 -11 -84 -24 -95 -37 -25
-31 -44 -50 -72 -72 -14 -11 -44 -47 -66 -80 -23 -33 -60 -80 -83 -104 -62
-66 -113 -146 -174 -272 -70 -146 -136 -304 -136 -327 0 -10 -7 -28 -16 -40
-26 -38 -23 -40 132 -63 70 -10 90 -10 147 4 36 10 76 17 89 17 30 0 70 58 98
141 12 35 26 68 31 73 5 6 9 18 9 28 0 9 22 61 49 115 54 106 115 243 126 283
4 14 22 54 41 90 18 36 40 81 49 100 8 19 26 55 40 79 14 24 25 57 25 73 0 31
-12 33 -80 17z"/>
<path d="M5978 4082 c-43 -5 -49 -62 -6 -62 12 0 23 -10 29 -29 15 -42 39 -30
39 19 0 48 -25 77 -62 72z"/>
<path d="M9536 9677 c-24 -18 -11 -51 14 -37 10 6 27 10 38 10 28 0 48 26 26
34 -25 10 -59 7 -78 -7z"/>
<path d="M10397 9553 c-4 -3 -7 -11 -7 -17 0 -6 5 -5 12 2 6 6 9 14 7 17 -3 3
-9 2 -12 -2z"/>
<path d="M2278 9227 c-39 -15 -35 -31 7 -24 38 6 60 -11 26 -20 -26 -7 -28
-33 -3 -33 41 0 59 60 23 80 -11 5 -21 10 -23 9 -2 -1 -15 -6 -30 -12z"/>
<path d="M8956 8441 c-10 -15 32 -58 79 -80 l45 -21 0 -56 c0 -47 3 -55 18
-52 13 2 18 15 20 61 3 55 4 58 38 72 82 34 123 85 69 85 -35 0 -85 -26 -111
-57 l-21 -25 -44 41 c-41 38 -81 52 -93 32z"/>
<path d="M3101 8226 c-10 -11 -5 -20 22 -40 19 -14 41 -26 50 -26 24 0 31 19
10 27 -10 3 -22 12 -26 20 -15 24 -44 34 -56 19z"/>
<path d="M9715 7669 c-9 -17 -14 -38 -11 -46 6 -14 9 -14 26 2 21 19 27 60 10
70 -5 3 -16 -8 -25 -26z"/>
<path d="M1805 7649 c-13 -13 -27 -18 -40 -15 -32 8 -53 -14 -57 -58 -2 -28 2
-42 15 -50 26 -16 51 4 55 45 2 20 14 46 29 61 15 15 24 30 21 33 -2 3 -13 -4
-23 -16z"/>
<path d="M2817 7560 c-8 -27 -27 -110 -27 -120 0 -6 11 -10 25 -10 24 0 25 3
24 53 0 57 -13 103 -22 77z"/>
<path d="M3820 7470 c6 -11 13 -20 16 -20 2 0 0 9 -6 20 -6 11 -13 20 -16 20
-2 0 0 -9 6 -20z"/>
<path d="M3821 6974 c0 -11 3 -14 6 -6 3 7 2 16 -1 19 -3 4 -6 -2 -5 -13z"/>
<path d="M10140 6850 c-16 -29 -9 -74 12 -78 12 -2 19 5 23 25 4 15 10 36 16
45 13 25 12 28 -16 28 -14 0 -29 -8 -35 -20z"/>
<path d="M9611 6776 c-7 -8 -11 -30 -9 -48 2 -25 8 -33 23 -33 16 0 21 8 23
36 4 42 -18 68 -37 45z"/>
<path d="M3590 6661 c0 -6 -9 -11 -20 -11 -27 0 -48 -45 -33 -68 27 -44 98 1
91 57 -3 25 -38 45 -38 22z"/>
<path d="M10797 6551 c-34 -100 -33 -114 3 -72 32 37 66 124 55 141 -16 25
-34 4 -58 -69z"/>
<path d="M2446 6571 c-3 -4 5 -18 18 -30 16 -15 22 -29 18 -46 -3 -21 0 -25
18 -25 15 0 20 4 16 15 -4 13 0 12 34 -1 36 -14 40 -14 67 3 l28 18 -18 -25
c-23 -33 -31 -50 -24 -56 7 -7 117 109 117 124 0 21 -33 13 -79 -18 -52 -36
-62 -37 -87 -9 -16 18 -84 59 -98 59 -3 0 -7 -4 -10 -9z"/>
<path d="M9545 6360 c-3 -5 -3 -14 0 -20 3 -5 -3 -10 -13 -10 -33 0 -46 -25
-32 -60 16 -38 37 -50 90 -50 33 0 42 4 49 22 11 31 -5 73 -41 103 -32 27 -43
30 -53 15z m55 -85 c0 -9 -9 -15 -21 -15 -18 0 -19 2 -9 15 7 8 16 15 21 15 5
0 9 -7 9 -15z"/>
<path d="M2195 6059 c-9 -14 -2 -20 14 -10 8 6 9 11 3 15 -6 3 -14 1 -17 -5z"/>
<path d="M3675 5980 c-16 -4 -50 -15 -75 -24 -25 -9 -88 -30 -140 -47 -52 -17
-133 -48 -180 -69 -47 -20 -114 -47 -150 -60 -168 -58 -610 -243 -645 -270 -5
-4 -41 -24 -80 -45 -101 -55 -212 -133 -246 -174 -41 -50 -38 -100 3 -52 74
86 398 263 698 381 143 56 348 140 415 170 74 33 168 71 234 95 78 29 233 104
211 103 -8 0 -28 -3 -45 -8z"/>
<path d="M10620 5974 c0 -7 18 -26 40 -41 38 -24 42 -25 57 -10 13 13 14 21 6
40 -9 20 -19 24 -57 24 -33 1 -46 -3 -46 -13z"/>
<path d="M3680 5947 c-36 -19 -112 -61 -170 -94 -165 -94 -285 -152 -332 -159
-56 -9 -283 -100 -428 -172 -122 -60 -143 -84 -95 -102 24 -9 26 -12 14 -27
-22 -27 -72 -68 -83 -68 -17 0 -36 -48 -36 -93 0 -41 -2 -44 -44 -63 -24 -10
-84 -31 -133 -45 -162 -46 -377 -163 -445 -240 -16 -18 -54 -75 -85 -126 -31
-51 -66 -106 -79 -123 -12 -16 -47 -80 -77 -142 -31 -62 -82 -147 -114 -189
-193 -256 -220 -311 -279 -559 -36 -155 -17 -375 49 -540 38 -95 173 -296 315
-467 65 -80 87 -95 77 -55 -3 12 1 60 9 107 17 98 103 508 112 530 3 8 14 63
25 122 10 59 30 142 44 185 13 43 31 110 40 148 9 39 38 115 64 170 26 55 56
125 65 155 10 30 24 69 31 85 7 17 16 44 20 60 4 17 13 48 22 70 15 41 104
226 113 235 3 3 16 25 29 50 13 25 38 65 54 90 101 150 127 190 127 196 0 3 8
18 18 32 10 15 32 59 48 97 46 112 121 209 191 246 20 11 26 11 33 -1 9 -14
24 -10 70 19 40 26 138 64 221 86 51 13 95 28 98 33 20 29 241 160 334 197
109 43 101 23 -13 -35 -147 -73 -272 -142 -267 -146 8 -8 297 89 376 127 74
35 87 39 107 28 13 -6 21 -15 19 -20 -3 -4 19 -1 47 7 29 7 68 14 86 14 l32 0
0 60 c0 42 4 61 15 67 12 7 3 31 -50 138 -61 122 -77 145 -100 145 -5 0 -39
-15 -75 -33z m-1060 -718 c0 -5 -7 -9 -15 -9 -9 0 -15 9 -15 21 0 18 2 19 15
9 8 -7 15 -16 15 -21z"/>
<path d="M1401 5607 c-45 -22 -36 -35 23 -33 60 2 71 7 63 31 -8 18 -52 20
-86 2z"/>
<path d="M4070 5590 c-13 -9 -13 -10 0 -10 8 0 22 5 30 10 13 9 13 10 0 10 -8
0 -22 -5 -30 -10z"/>
<path d="M9485 5288 c-77 -16 -143 -33 -147 -37 -12 -11 21 -51 41 -51 10 0
35 7 54 15 22 9 68 15 116 15 79 0 111 12 111 43 0 7 4 6 10 -3 8 -12 10 -12
16 3 8 22 -7 40 -38 42 -13 1 -86 -11 -163 -27z"/>
<path d="M9423 5167 c-71 -24 -72 -25 -43 -110 10 -31 30 -105 45 -165 14 -59
29 -123 35 -142 5 -19 12 -57 15 -85 3 -27 14 -85 25 -129 11 -43 20 -94 20
-113 0 -36 21 -161 46 -278 9 -38 17 -81 18 -95 3 -33 32 -37 93 -14 32 12 72
18 122 17 42 -1 79 1 82 3 3 2 0 27 -8 56 -25 96 -34 142 -43 228 -5 47 -14
128 -19 180 -15 136 -39 273 -62 344 -10 33 -19 68 -19 77 0 27 -71 234 -83
241 -24 16 -162 6 -224 -15z"/>
<path d="M11676 4303 c-12 -12 -5 -23 14 -23 11 0 20 4 20 9 0 11 -26 22 -34
14z"/>
<path d="M9246 824 c-9 -22 -8 -24 9 -24 8 0 15 6 15 14 0 22 -17 28 -24 10z"/>
</g>
</svg>
